<svg width="180" height="208" viewBox="0 0 180 208" fill="none" xmlns="http://www.w3.org/2000/svg">
<g opacity="0.92" clip-path="url(#clip0_54_2)">
<path d="M113 182C151.66 182 183 150.66 183 112C183 73.3401 151.66 42 113 42C74.3401 42 43 73.3401 43 112C43 150.66 74.3401 182 113 182Z" fill="#E3F1E7"/>
<path d="M161 208C150 171 145 137 142 99C140 70 145 38 157 8" stroke="#246B3B" stroke-width="3" stroke-linecap="round"/>
<path d="M143 105C121 93 108 77 98 57" stroke="#3F8F57" stroke-width="2.5" stroke-linecap="round"/>
<path d="M147 143C126 137 109 124 94 106" stroke="#3F8F57" stroke-width="2.5" stroke-linecap="round"/>
<path d="M139.167 73.3767C145.674 76.4109 156.247 67.5092 162.782 53.4941C169.317 39.479 169.34 25.6577 162.833 22.6234C156.326 19.5892 145.753 28.4909 139.218 42.506C132.683 56.5211 132.66 70.3424 139.167 73.3767Z" fill="#2E8B57"/>
<path d="M149.061 99.7028C153.828 95.099 149.607 82.9934 139.632 72.6641C129.657 62.3348 117.706 57.6934 112.939 62.2972C108.171 66.9009 112.393 79.0066 122.368 89.3359C132.343 99.6652 144.294 104.307 149.061 99.7028Z" fill="#58A66D"/>
<path d="M122.776 73.9123C127.563 70.1721 124.829 58.6728 116.668 48.2278C108.508 37.7829 98.0114 32.3476 93.2241 36.0878C88.4369 39.8281 91.1714 51.3274 99.3319 61.7724C107.492 72.2173 117.989 77.6526 122.776 73.9123Z" fill="#76B486"/>
<path d="M143.683 142.355C147.943 137.278 142.137 125.392 130.713 115.807C119.29 106.222 106.577 102.568 102.317 107.645C98.0568 112.722 103.864 124.607 115.287 134.192C126.71 143.777 139.423 147.432 143.683 142.355Z" fill="#4C9B63"/>
<path d="M141.608 124.7C146.831 128.781 157.956 123.268 166.456 112.388C174.957 101.508 177.614 89.38 172.392 85.2998C167.169 81.2196 156.044 86.732 147.544 97.6121C139.043 108.492 136.386 120.62 141.608 124.7Z" fill="#78B787"/>
<path d="M139.855 186.723C146.194 190.093 157.218 181.757 164.478 168.103C171.738 154.449 172.484 140.648 166.145 137.277C159.806 133.907 148.782 142.243 141.522 155.897C134.262 169.551 133.515 183.352 139.855 186.723Z" fill="#2E8B57"/>
<path d="M121.874 115.474C125.35 111.182 120.165 101.223 110.293 93.2286C100.421 85.2346 89.6012 82.2336 86.1256 86.5257C82.65 90.8177 87.835 100.778 97.7068 108.771C107.578 116.765 118.399 119.766 121.874 115.474Z" fill="#87C294"/>
</g>
<defs>
<clipPath id="clip0_54_2">
<rect width="180" height="208" fill="white"/>
</clipPath>
</defs>
</svg>
