<svg width="42" height="42" viewBox="0 0 42 42" fill="none" xmlns="http://www.w3.org/2000/svg">
  <path d="M21 19.95C23.3196 19.95 25.2 18.0696 25.2 15.75C25.2 13.4305 23.3196 11.55 21 11.55C18.6804 11.55 16.8 13.4305 16.8 15.75C16.8 18.0696 18.6804 19.95 21 19.95Z" stroke="#16883D" stroke-width="1.6" />
  <path d="M13.125 30.45C13.86 25.2 16.485 22.575 21 22.575C25.515 22.575 28.14 25.2 28.875 30.45" stroke="#16883D" stroke-width="1.6" stroke-linecap="round" />
  <path d="M29.4 11.55L30.24 13.335L32.025 14.175L30.24 15.015L29.4 16.8L28.56 15.015L26.775 14.175L28.56 13.335L29.4 11.55Z" fill="#E2F3E6" />
</svg>